<?xml version="1.0" standalone="no"?><!DOCTYPE svg PUBLIC "-//W3C//DTD SVG 1.1//EN" "http://www.w3.org/Graphics/SVG/1.1/DTD/svg11.dtd"><svg t="1579873207780" class="icon" viewBox="0 0 1024 1024" version="1.1" xmlns="http://www.w3.org/2000/svg" p-id="2106" xmlns:xlink="http://www.w3.org/1999/xlink" width="66" height="66"><defs><style type="text/css"></style></defs><path d="M377.567 153.513H243.134c-24.69 0-44.812 20.121-44.812 44.812v627.354c0 24.691 20.119 44.812 44.812 44.812h134.433c24.691 0 44.812-20.121 44.812-44.812V198.325c0-24.691-20.121-44.812-44.812-44.812z m403.299 0H646.433c-24.691 0-44.812 20.121-44.812 44.812v627.354c0 24.691 20.121 44.812 44.812 44.812h134.433c24.69 0 44.812-20.121 44.812-44.812V198.325c0-24.691-20.119-44.812-44.812-44.812z" p-id="2107"></path></svg>